<?xml version="1.0" standalone="no"?>
<!DOCTYPE svg PUBLIC "-//W3C//DTD SVG 20010904//EN"
 "http://www.w3.org/TR/2001/REC-SVG-20010904/DTD/svg10.dtd">
<svg version="1.0" xmlns="http://www.w3.org/2000/svg"
 width="840.000000pt" height="572.000000pt" viewBox="0 0 840.000000 572.000000"
 preserveAspectRatio="xMidYMid meet">

<g transform="translate(0.000000,572.000000) scale(0.100000,-0.100000)"
fill="#000000" stroke="none">
<path d="M3510 4651 l0 -270 105 -394 c71 -265 105 -411 105 -447 0 -61 73 69
-675 -1205 -236 -401 -475 -810 -533 -908 l-104 -179 29 -30 c75 -79 285 -189
482 -252 346 -112 760 -166 1271 -166 799 0 1420 139 1732 389 32 25 58 52 58
59 0 7 -204 360 -453 785 -249 424 -542 923 -650 1108 l-197 335 0 70 c0 57
19 140 105 459 l105 389 0 263 0 263 -105 0 -105 0 0 -179 0 -179 -121 -61
c-121 -61 -250 -141 -323 -199 l-38 -32 -58 45 c-81 63 -198 134 -318 194
l-102 51 0 180 0 180 -105 0 -105 0 0 -269z"/>
</g>
</svg>
