<?xml version="1.0" standalone="no"?>
<!DOCTYPE svg PUBLIC "-//W3C//DTD SVG 20010904//EN"
 "http://www.w3.org/TR/2001/REC-SVG-20010904/DTD/svg10.dtd">
<svg version="1.0" xmlns="http://www.w3.org/2000/svg"
 width="512.000000pt" height="512.000000pt" viewBox="0 0 512.000000 512.000000"
 preserveAspectRatio="xMidYMid meet">

<g transform="translate(0.000000,512.000000) scale(0.100000,-0.100000)"
fill="#000000" stroke="none">
<path d="M2883 5056 c-18 -6 -35 -15 -39 -19 -4 -4 -15 -7 -24 -7 -9 0 -27
-11 -40 -25 -12 -13 -27 -22 -31 -19 -19 11 -47 -18 -60 -61 -10 -33 -24 -52
-52 -72 -44 -31 -67 -61 -90 -121 -16 -39 -16 -45 -2 -65 17 -24 22 -132 5
-122 -13 8 -13 -16 0 -51 8 -19 7 -30 -2 -41 -10 -12 -7 -13 15 -8 37 10 36
-19 -3 -65 -39 -45 -38 -62 6 -98 23 -19 34 -35 29 -43 -6 -8 -4 -10 4 -5 7 5
21 0 32 -10 19 -17 20 -17 25 3 5 17 13 21 45 19 38 -1 52 -17 28 -32 -6 -3
-55 -10 -110 -14 -121 -10 -142 -21 -226 -120 -104 -123 -152 -168 -229 -216
-82 -51 -114 -99 -114 -171 0 -53 24 -75 87 -78 26 -1 107 -8 179 -14 72 -7
165 -11 207 -9 74 3 77 2 77 -19 0 -13 7 -65 16 -115 21 -120 16 -278 -10
-328 -21 -41 -17 -37 -250 -222 -226 -180 -464 -377 -561 -464 -41 -37 -97
-84 -124 -103 -27 -20 -131 -106 -231 -191 -291 -247 -347 -288 -583 -431
-239 -145 -369 -254 -486 -407 -65 -86 -72 -111 -43 -153 45 -70 153 -175 231
-226 l85 -56 30 36 c29 35 33 36 66 27 54 -16 66 -12 91 25 23 33 26 35 77 31
58 -4 91 -26 119 -81 15 -28 40 -54 54 -55 4 0 44 43 90 95 46 52 89 95 96 95
6 0 16 -24 23 -52 26 -110 126 -248 180 -248 12 0 30 -5 40 -10 25 -13 107
-120 125 -162 14 -34 78 -92 89 -81 3 4 6 15 6 25 0 30 18 21 89 -48 83 -79
85 -81 191 -127 152 -66 269 -106 353 -122 45 -9 134 -29 197 -45 63 -16 156
-34 205 -41 91 -12 258 -6 279 9 15 11 126 3 126 -9 0 -16 153 -10 211 8 41
13 84 17 174 16 105 -2 162 3 254 23 16 3 22 10 18 23 -4 16 3 19 45 23 72 7
84 23 54 73 l-24 40 41 15 c30 11 43 22 45 38 3 16 10 22 30 22 49 0 105 21
134 51 25 24 27 32 18 49 -10 18 -8 22 9 27 12 3 21 12 21 19 0 8 6 14 14 14
25 0 26 15 7 82 -17 63 -17 66 1 77 10 6 18 17 18 24 0 6 -30 57 -65 112 -61
95 -241 446 -300 585 -36 86 -79 214 -95 281 -80 355 -158 637 -224 814 -64
171 -188 398 -273 503 -43 53 -53 87 -53 184 0 121 24 220 79 333 27 55 52
108 55 118 8 24 40 17 156 -30 223 -92 385 -126 423 -89 21 21 21 38 2 103
-17 57 -47 88 -122 124 -81 39 -255 160 -313 217 -111 109 -184 152 -264 152
-57 1 -127 18 -148 37 -21 19 -23 61 -3 87 14 18 15 18 52 -1 26 -14 40 -29
45 -50 6 -24 15 -33 38 -38 16 -4 32 -11 35 -16 4 -5 15 -9 25 -9 24 0 17 24
-17 61 -13 14 -20 28 -17 32 11 11 41 -11 62 -46 16 -27 28 -35 62 -41 23 -4
56 -13 74 -22 l31 -15 -25 20 -24 19 37 18 c31 15 42 16 58 6 15 -10 19 -10
19 2 0 19 -58 31 -109 22 -24 -3 -44 -1 -57 8 -37 26 -182 86 -215 90 -32 3
-34 5 -33 42 0 35 2 39 25 36 l24 -3 -21 19 c-26 22 -40 109 -23 145 13 29 -8
115 -41 170 -21 34 -27 77 -10 77 5 0 7 -7 4 -15 -4 -8 -1 -15 5 -15 16 0 13
42 -5 68 -14 20 -14 22 2 22 13 0 14 3 4 15 -6 8 -9 19 -5 26 4 6 1 15 -6 20
-8 4 -14 16 -14 26 0 12 -8 18 -26 19 -38 1 -59 11 -59 28 0 18 -47 49 -62 40
-7 -4 -8 -3 -4 4 8 14 2 14 -41 -2z m-138 -93 c-4 -10 -8 -27 -9 -37 0 -11 -7
-21 -13 -24 -17 -5 -17 50 -1 66 18 18 31 15 23 -5z m335 -383 l-11 -25 6 25
c2 14 5 36 6 50 l2 25 4 -25 c2 -14 -1 -37 -7 -50z m-4 -107 c-11 -11 -19 6
-11 24 8 17 8 17 12 0 3 -10 2 -21 -1 -24z m-447 -132 c20 -38 20 -39 1 -56
-17 -16 -20 -16 -49 6 -17 13 -31 27 -31 33 0 12 40 56 52 56 4 0 17 -17 27
-39z m611 -41 c13 -9 13 -10 0 -10 -8 0 -22 5 -30 10 -13 9 -13 10 0 10 8 0
22 -5 30 -10z m-580 -30 c0 -13 -28 -25 -38 -16 -3 4 0 11 8 16 20 13 30 12
30 0z m140 -7 c0 -5 -7 -17 -15 -27 -15 -20 -20 -10 -9 18 6 16 24 22 24 9z
m448 -29 c-10 -10 -28 6 -28 24 0 15 1 15 17 -1 9 -9 14 -19 11 -23z m122 -4
c0 -5 -4 -10 -10 -10 -5 0 -10 5 -10 10 0 6 5 10 10 10 6 0 10 -4 10 -10z m95
-14 c-31 -14 -50 -11 -40 5 4 5 21 9 38 9 l32 -1 -30 -13z m-900 -433 c3 -18
3 -33 -2 -33 -25 1 -164 46 -164 53 0 5 26 28 58 52 l58 44 21 -42 c12 -23 25
-57 29 -74z m796 70 c47 -31 40 -39 -17 -21 -22 8 -40 20 -42 31 -5 24 12 21
59 -10z"/>
<path d="M2506 4609 c-3 -8 -6 -23 -9 -34 -2 -11 -8 -19 -13 -18 -10 2 -6 -37
12 -111 6 -23 2 -32 -22 -51 -27 -21 -28 -24 -14 -51 8 -16 16 -32 18 -36 2
-5 -8 -12 -22 -18 -29 -11 -34 -35 -10 -44 25 -10 29 -7 10 7 -17 12 -16 14 8
25 28 13 35 49 14 70 -9 9 -6 18 16 41 25 26 27 34 23 83 -2 30 -6 59 -10 65
-4 5 -2 25 3 43 9 32 5 58 -4 29z"/>
<path d="M2467 4439 c7 -7 15 -10 18 -7 3 3 -2 9 -12 12 -14 6 -15 5 -6 -5z"/>
<path d="M3150 4383 c1 -19 19 -35 36 -31 15 3 14 6 -9 21 -15 10 -27 14 -27
10z"/>
</g>
</svg>
