<?xml version="1.0" standalone="no"?>
<!DOCTYPE svg PUBLIC "-//W3C//DTD SVG 20010904//EN"
 "http://www.w3.org/TR/2001/REC-SVG-20010904/DTD/svg10.dtd">
<svg version="1.0" xmlns="http://www.w3.org/2000/svg"
 width="512.000000pt" height="512.000000pt" viewBox="0 0 512.000000 512.000000"
 preserveAspectRatio="xMidYMid meet">

<g transform="translate(0.000000,512.000000) scale(0.100000,-0.100000)"
fill="#000000" stroke="none">
<path d="M1446 4580 c-41 -13 -94 -68 -106 -110 -5 -19 -10 -106 -10 -192 l0
-158 1230 0 1230 0 0 158 c0 86 -5 173 -10 192 -12 45 -65 97 -111 110 -43 13
-2182 12 -2223 0z"/>
<path d="M661 3005 c-348 -487 -639 -901 -647 -920 -30 -72 -11 -127 86 -250
184 -232 451 -423 820 -585 97 -43 388 -145 395 -139 2 3 119 621 260 1374
141 754 258 1378 261 1388 5 16 -12 17 -269 17 l-273 0 -633 -885z"/>
<path d="M2065 3868 c-13 -54 -565 -3013 -565 -3027 0 -21 139 -108 246 -154
241 -105 485 -149 814 -149 329 0 573 44 814 149 107 46 246 133 246 154 0 14
-552 2973 -565 3027 l-5 22 -490 0 -490 0 -5 -22z"/>
<path d="M3284 3873 c3 -10 120 -634 261 -1388 141 -753 258 -1371 260 -1374
7 -6 298 96 395 139 369 162 636 353 820 585 97 123 116 178 86 250 -8 19
-299 433 -647 920 l-633 885 -273 0 c-257 0 -274 -1 -269 -17z"/>
</g>
</svg>
