<?xml version="1.0" standalone="no"?>
<!DOCTYPE svg PUBLIC "-//W3C//DTD SVG 20010904//EN"
 "http://www.w3.org/TR/2001/REC-SVG-20010904/DTD/svg10.dtd">
<svg version="1.0" xmlns="http://www.w3.org/2000/svg"
 width="360.000000pt" height="360.000000pt" viewBox="0 0 360.000000 360.000000"
 preserveAspectRatio="xMidYMid meet">

<g transform="translate(0.000000,360.000000) scale(0.100000,-0.100000)"
fill="#000000" stroke="none">
<path d="M952 2664 c-212 -198 -261 -375 -167 -599 110 -262 159 -541 172
-972 l6 -211 49 -4 c28 -1 53 1 56 7 3 5 9 134 13 285 14 532 37 704 95 727
63 24 184 -219 305 -612 100 -330 144 -391 304 -426 177 -38 769 23 978 101
204 77 92 188 -398 396 l-160 67 -127 7 c-110 6 -134 11 -183 35 -67 32 -93
68 -140 192 -69 182 -158 351 -301 571 -145 221 -375 522 -400 522 -6 0 -52
-38 -102 -86z"/>
</g>
</svg>
