<?xml version="1.0" standalone="no"?>
<!DOCTYPE svg PUBLIC "-//W3C//DTD SVG 20010904//EN"
 "http://www.w3.org/TR/2001/REC-SVG-20010904/DTD/svg10.dtd">
<svg version="1.0" xmlns="http://www.w3.org/2000/svg"
 width="225.000000pt" height="225.000000pt" viewBox="0 0 225.000000 225.000000"
 preserveAspectRatio="xMidYMid meet">

<g transform="translate(0.000000,225.000000) scale(0.100000,-0.100000)"
fill="#000000" stroke="none">
<path d="M44 2064 c-20 -19 -24 -31 -20 -52 14 -56 34 -62 196 -62 l148 0 162
-652 c185 -752 185 -752 206 -772 14 -14 84 -16 605 -16 576 0 589 0 609 20
26 26 25 51 -1 84 l-20 26 -548 0 -549 0 -21 88 c-12 48 -24 95 -27 105 -5 16
28 17 594 17 l599 0 20 22 c15 17 49 138 127 453 105 427 106 430 87 455 l-18
25 -825 3 -825 2 -31 123 c-23 86 -38 127 -53 140 -19 15 -45 17 -206 17 -184
0 -184 0 -209 -26z m806 -396 c0 -7 7 -58 15 -113 8 -55 15 -112 15 -127 l0
-28 -118 0 -118 0 -32 133 c-18 72 -32 135 -32 140 0 4 61 7 135 7 101 0 135
-3 135 -12z m408 -130 l3 -138 -121 0 c-89 0 -120 3 -120 13 0 6 -7 59 -15
117 -23 169 -37 151 118 148 l132 -3 3 -137z m392 119 c0 -25 -17 -173 -25
-224 l-6 -33 -114 0 -115 0 0 140 0 140 130 0 c129 0 130 0 130 -23z m415 1
c-3 -13 -18 -75 -33 -138 l-28 -115 -122 -3 c-94 -2 -122 0 -122 10 0 7 7 67
15 133 8 65 15 123 15 127 0 4 63 8 140 8 l140 0 -5 -22z m-1161 -415 c3 -10
10 -63 16 -118 6 -55 13 -108 16 -117 5 -16 -4 -18 -93 -18 l-98 0 -29 123
c-16 67 -31 128 -33 135 -4 9 21 12 105 12 97 0 111 -2 116 -17z m356 -118 l0
-135 -93 0 -94 0 -12 103 c-7 56 -14 117 -18 135 l-5 32 111 0 111 0 0 -135z
m340 113 c0 -25 -19 -193 -26 -225 -4 -22 -9 -23 -94 -23 l-90 0 0 135 0 135
105 0 c101 0 105 -1 105 -22z m343 -75 c-13 -54 -29 -115 -34 -135 l-10 -38
-94 0 c-52 0 -95 3 -95 8 0 4 7 61 15 127 8 65 15 123 15 127 0 4 51 8 114 8
l114 0 -25 -97z"/>
<path d="M829 413 c-118 -73 -52 -266 85 -249 103 12 156 126 99 212 -34 52
-129 71 -184 37z"/>
<path d="M1666 409 c-79 -62 -72 -179 13 -227 49 -28 83 -28 132 0 85 48 92
165 13 227 -19 15 -41 21 -79 21 -38 0 -60 -6 -79 -21z"/>
</g>
</svg>
