<?xml version="1.0" standalone="no"?>
<!DOCTYPE svg PUBLIC "-//W3C//DTD SVG 20010904//EN"
 "http://www.w3.org/TR/2001/REC-SVG-20010904/DTD/svg10.dtd">
<svg version="1.0" xmlns="http://www.w3.org/2000/svg"
 width="820.000000pt" height="860.000000pt" viewBox="0 0 820.000000 860.000000"
 preserveAspectRatio="xMidYMid meet">

<g transform="translate(0.000000,860.000000) scale(0.100000,-0.100000)"
fill="#000000" stroke="none">
<path d="M3795 8189 c-821 -68 -1568 -365 -2205 -875 -174 -140 -467 -432
-604 -604 -700 -876 -1001 -1973 -845 -3075 46 -325 122 -610 241 -910 534
-1336 1734 -2282 3153 -2484 1102 -157 2199 145 3075 845 173 138 466 431 604
604 700 876 1002 1973 845 3075 -102 717 -385 1368 -847 1947 -137 172 -430
465 -602 602 -614 491 -1319 781 -2105 866 -136 15 -575 21 -710 9z m615 -404
c841 -74 1594 -420 2199 -1010 601 -585 964 -1322 1068 -2165 24 -202 24 -619
0 -820 -95 -771 -410 -1452 -942 -2033 -100 -110 -204 -211 -211 -204 -2 2
-17 55 -33 118 -73 291 -220 581 -410 813 -82 100 -261 271 -358 343 -278 207
-573 325 -903 363 -64 8 -322 10 -780 8 -598 -4 -696 -6 -772 -21 -400 -79
-729 -258 -1020 -553 -270 -274 -447 -587 -539 -953 -16 -63 -31 -116 -33
-118 -13 -13 -257 245 -396 419 -281 351 -519 816 -645 1258 -167 582 -177
1224 -31 1825 247 1014 933 1877 1871 2355 594 303 1271 434 1935 375z"/>
<path d="M3985 6399 c-474 -33 -921 -333 -1138 -765 -92 -183 -136 -360 -144
-580 -9 -248 29 -437 131 -650 73 -153 142 -251 263 -375 207 -212 434 -338
726 -401 146 -31 408 -31 554 0 313 68 565 214 781 456 79 88 147 193 208 320
101 211 140 401 131 645 -13 371 -145 680 -402 937 -123 123 -208 187 -345
258 -244 126 -484 174 -765 155z"/>
</g>
</svg>
