<?xml version="1.0" standalone="no"?>
<!DOCTYPE svg PUBLIC "-//W3C//DTD SVG 20010904//EN"
 "http://www.w3.org/TR/2001/REC-SVG-20010904/DTD/svg10.dtd">
<svg version="1.0" xmlns="http://www.w3.org/2000/svg"
 width="1354.000000pt" height="588.000000pt" viewBox="0 0 1354.000000 588.000000"
 preserveAspectRatio="xMidYMid meet">

<g transform="translate(0.000000,588.000000) scale(0.100000,-0.100000)"
fill="#000000" stroke="none">
<path d="M2665 5828 c-2 -7 -5 -45 -7 -84 -3 -57 -9 -79 -31 -112 -41 -63 -72
-75 -225 -83 -118 -7 -138 -11 -183 -36 -62 -33 -104 -82 -125 -146 -19 -56
-13 -80 18 -75 16 2 24 12 28 33 15 70 58 122 124 149 44 18 256 23 256 6 0
-5 -52 -142 -115 -304 -107 -273 -115 -299 -115 -363 0 -37 5 -85 11 -106 8
-31 14 -38 32 -35 17 2 21 9 19 28 -2 14 -4 59 -5 100 -2 82 -18 34 183 545
26 65 52 121 58 123 6 2 25 -42 42 -100 116 -378 118 -383 193 -383 29 0 52 6
65 18 11 10 59 118 107 240 48 122 91 226 95 231 15 16 38 -40 140 -343 90
-268 102 -310 97 -352 -8 -64 -31 -105 -69 -125 -35 -18 -74 -16 -248 11 -199
31 -483 12 -557 -38 -44 -30 -76 -90 -75 -141 5 -319 5 -329 -22 -431 -17 -65
-54 -158 -105 -265 -44 -91 -97 -208 -119 -260 -338 -806 -872 -2313 -872
-2462 0 -21 14 -38 70 -82 96 -75 176 -122 255 -151 37 -13 76 -32 86 -41 10
-9 37 -64 59 -123 22 -58 44 -112 49 -120 13 -25 74 -50 193 -80 63 -16 134
-39 156 -50 23 -12 46 -21 53 -21 6 0 27 16 46 36 19 20 36 34 39 31 3 -3 8
-27 10 -54 11 -113 25 -157 63 -193 46 -44 214 -131 305 -159 92 -28 137 -27
173 3 24 20 37 24 69 19 70 -9 276 54 389 120 96 55 135 107 135 177 l0 40 98
0 c110 0 208 22 297 65 85 42 97 67 93 190 l-3 100 90 7 c196 14 319 78 377
196 45 92 36 129 -197 777 -74 204 -202 555 -285 780 -310 835 -452 1224 -537
1465 -65 183 -66 187 -72 319 l-6 134 -37 31 c-46 40 -125 58 -256 58 -138 -1
-312 -48 -312 -86 0 -29 27 -38 60 -21 52 27 182 55 255 54 113 0 232 -36 236
-72 1 -6 3 -59 4 -117 1 -98 5 -115 54 -260 47 -137 239 -663 383 -1050 147
-395 324 -875 348 -945 16 -44 63 -174 105 -290 110 -298 215 -606 215 -627 0
-11 -7 -18 -20 -18 -38 0 -275 130 -374 205 -120 91 -202 137 -304 174 -97 35
-108 50 -168 235 -42 131 -46 152 -55 301 -43 730 -139 1665 -200 1955 -46
217 -88 314 -132 308 -44 -6 -48 -37 -44 -278 9 -444 149 -1424 288 -2008 24
-103 49 -314 49 -407 -1 -50 -13 -50 -131 7 -63 30 -167 79 -233 108 -65 30
-124 63 -132 75 -12 18 -12 56 1 256 45 733 62 1466 37 1594 -18 92 -62 111
-95 43 -53 -109 -97 -606 -97 -1104 0 -412 13 -561 61 -711 27 -83 21 -98 -49
-118 -31 -9 -109 -43 -173 -75 -69 -35 -121 -55 -128 -51 -21 13 -34 219 -28
441 5 184 10 223 42 375 63 301 113 614 146 910 18 154 18 411 1 452 -27 64
-73 50 -97 -30 -44 -145 -110 -765 -145 -1362 -7 -132 -15 -176 -63 -365 -92
-361 -187 -580 -251 -580 -27 0 -41 27 -51 93 -6 37 1 76 33 199 88 330 189
880 199 1079 6 112 5 117 -15 128 -18 9 -25 8 -41 -8 -43 -43 -133 -415 -200
-831 -20 -126 -32 -247 -40 -400 -8 -141 -11 -162 -40 -235 -38 -94 -81 -153
-159 -218 -62 -52 -206 -126 -291 -151 -76 -22 -91 -21 -91 7 0 43 183 601
363 1107 123 344 148 412 215 590 187 493 271 697 377 913 140 289 150 325
150 594 l0 202 30 31 c35 37 64 45 211 61 123 14 231 7 435 -28 115 -20 160
-11 212 40 32 33 67 120 67 169 0 27 -70 245 -168 525 -33 94 -58 174 -55 177
14 13 260 6 296 -9 55 -23 81 -67 85 -148 4 -67 5 -68 31 -65 25 3 26 4 24 70
-3 97 -35 153 -105 189 -31 16 -59 19 -166 19 -155 0 -222 16 -268 66 -36 37
-60 116 -49 162 7 32 -14 58 -40 48 -11 -4 -15 -22 -15 -71 0 -74 16 -119 60
-175 16 -21 30 -42 30 -48 0 -12 -135 -359 -173 -444 -21 -48 -30 -58 -50 -58
-29 0 -41 13 -55 60 -6 19 -36 118 -67 220 -74 241 -71 224 -45 257 34 44 50
91 57 171 5 58 3 76 -8 83 -20 12 -39 11 -44 -3z m460 -1804 c38 -185 86 -554
125 -944 43 -435 62 -745 40 -650 -16 69 -79 449 -109 655 -70 492 -123 1098
-92 1069 7 -6 23 -65 36 -130z m-605 -614 c-28 -277 -56 -466 -71 -476 -5 -3
-9 1 -9 8 0 26 49 485 60 557 23 159 38 92 20 -89z m326 -257 c-7 -346 -30
-878 -42 -983 l-7 -55 -10 40 c-15 59 -14 680 1 905 14 205 37 414 47 430 3 6
9 10 12 10 3 0 3 -156 -1 -347z m-789 -835 c-3 -8 -6 -5 -6 6 -1 11 2 17 5 13
3 -3 4 -12 1 -19z m293 -637 c20 -153 32 -159 177 -86 157 78 198 94 270 105
61 8 67 7 141 -26 42 -19 104 -47 137 -62 33 -15 116 -55 184 -89 145 -72 151
-71 151 18 0 75 16 77 53 5 36 -69 48 -79 127 -106 98 -34 186 -83 289 -161
111 -84 232 -155 352 -206 49 -20 89 -41 89 -46 0 -17 -29 -63 -57 -89 -53
-50 -154 -88 -274 -104 -46 -6 -109 9 -109 25 0 4 14 28 30 54 24 39 30 58 30
105 0 77 -21 110 -100 153 -26 14 -52 37 -61 56 -32 63 -49 83 -74 83 -15 0
-31 -10 -41 -25 -14 -22 -22 -25 -48 -19 -17 3 -35 9 -41 13 -5 4 -41 20 -80
35 -38 15 -88 36 -110 46 -22 10 -60 26 -85 35 -53 20 -74 37 -107 88 -31 49
-48 55 -78 27 -32 -30 -38 -28 -233 61 -35 16 -65 29 -68 29 -3 0 -25 -13 -49
-30 -24 -16 -48 -30 -52 -30 -5 0 -33 -11 -61 -25 -29 -14 -58 -25 -66 -25 -8
0 -18 -4 -21 -10 -3 -5 -15 -10 -26 -10 -10 0 -19 -4 -19 -10 0 -5 -8 -10 -18
-10 -10 0 -23 -5 -30 -12 -6 -6 -33 -11 -59 -10 -41 0 -53 -4 -83 -32 -19 -18
-66 -45 -105 -61 -65 -26 -112 -46 -192 -81 -17 -8 -45 -17 -62 -20 l-30 -6
-3 58 c-3 50 -6 61 -25 69 -13 5 -23 16 -23 23 0 11 26 69 36 81 2 2 19 -13
38 -34 30 -31 40 -36 63 -30 45 10 71 32 108 88 39 59 111 234 145 352 38 131
44 134 52 25 4 -52 12 -133 18 -179z m-510 -399 c0 -21 -40 -123 -59 -149 -32
-45 -43 -104 -32 -174 17 -105 -4 -181 -35 -131 -12 18 -43 35 -144 76 -67 27
-186 102 -194 122 -3 8 31 24 87 44 112 38 218 97 300 167 62 52 77 60 77 45z
m88 -479 c26 -15 49 -30 52 -33 3 -4 28 -20 55 -35 97 -56 184 -116 193 -132
11 -18 -9 -84 -34 -118 -14 -19 -15 -19 -62 -1 -26 10 -98 31 -159 47 -62 15
-122 33 -133 39 -10 6 -24 29 -30 51 -9 34 -8 51 11 107 26 82 37 102 50 102
6 0 31 -12 57 -27z m1904 -18 c5 -16 10 -70 11 -118 2 -83 1 -89 -23 -107 -39
-31 -127 -61 -225 -77 -106 -17 -147 -12 -175 24 -31 40 -28 50 34 101 8 6 18
12 21 12 3 0 27 15 53 33 58 39 74 49 134 84 27 16 48 31 48 36 0 4 5 7 11 7
6 0 23 9 37 20 35 28 64 22 74 -15z m-1330 -345 c79 -49 148 -93 153 -98 6 -5
42 -27 81 -50 40 -23 74 -48 78 -57 7 -20 -8 -101 -24 -120 -28 -33 -132 -10
-278 63 -133 66 -160 92 -172 167 -11 69 -13 169 -3 178 12 12 20 8 165 -83z
m849 0 c11 -110 -21 -153 -166 -221 -85 -40 -253 -86 -279 -76 -21 8 -38 74
-25 95 6 10 33 28 61 42 27 13 54 30 60 37 6 7 16 13 23 13 6 0 20 9 30 20 10
11 22 20 27 20 5 0 19 7 31 15 102 71 195 125 212 123 17 -3 21 -13 26 -68z"/>
<path d="M4200 4585 c-149 -31 -266 -93 -357 -188 -106 -111 -166 -248 -161
-367 l3 -65 24 63 c13 34 28 62 33 62 6 0 7 -8 3 -17 -27 -65 -6 -75 23 -10
31 66 75 121 149 180 85 68 133 93 231 117 124 32 202 25 337 -28 75 -30 129
-82 170 -165 66 -133 67 -277 6 -402 -33 -66 -125 -167 -169 -183 -151 -58
-196 -72 -223 -72 l-32 0 8 93 c4 50 9 166 11 257 5 217 -9 287 -73 360 -50
55 -69 63 -59 25 4 -16 1 -34 -9 -48 -9 -13 -15 -43 -15 -78 0 -31 -9 -101
-19 -155 -11 -54 -25 -133 -31 -174 -7 -41 -16 -91 -21 -110 -5 -19 -9 -72 -9
-118 0 -112 -4 -118 -90 -126 -38 -4 -70 -11 -70 -15 0 -5 23 -11 51 -15 38
-5 59 -15 84 -39 29 -28 34 -41 40 -102 10 -96 30 -169 60 -221 33 -56 45 -63
45 -25 0 16 5 33 10 36 6 3 10 1 10 -4 0 -6 4 -11 8 -11 11 0 38 96 57 206 8
49 21 94 28 100 6 6 50 16 97 22 263 34 448 168 535 387 33 83 45 240 26 347
-37 214 -189 398 -387 470 -73 27 -229 33 -324 13z"/>
<path d="M9186 4543 c7 -16 14 -37 14 -48 -1 -18 -1 -19 -11 -2 -16 27 -29 20
-29 -17 0 -19 -7 -69 -15 -112 -8 -44 -19 -110 -25 -149 -5 -38 -16 -113 -24
-165 -24 -158 -29 -707 -7 -785 28 -101 95 -175 159 -175 12 0 24 -4 27 -10
18 -28 144 8 207 60 20 17 51 56 69 87 29 50 34 69 37 145 5 91 -7 115 -27 58
-5 -17 -21 -34 -33 -39 -13 -5 -36 -27 -52 -49 -51 -74 -130 -111 -176 -82
-22 14 -25 160 -6 325 19 161 22 609 6 732 -20 146 -69 252 -117 253 -9 0 -8
-8 3 -27z"/>
<path d="M5564 4131 c-52 -13 -101 -49 -133 -98 -72 -108 -91 -229 -52 -318
27 -61 45 -82 93 -106 46 -24 107 -27 88 -4 -6 8 -8 20 -4 26 5 9 2 10 -9 6
-10 -4 -14 -2 -11 7 3 7 -6 17 -19 23 -38 17 -60 77 -54 140 15 142 147 179
209 58 11 -22 24 -47 29 -55 5 -8 16 -28 26 -45 25 -43 25 -257 0 -338 -30
-98 -75 -169 -129 -203 -59 -38 -79 -33 -125 34 -22 31 -46 68 -52 81 -20 37
-61 154 -61 173 0 10 -4 18 -8 18 -8 0 -22 49 -38 129 -8 41 -24 24 -24 -26 0
-20 -8 -40 -21 -52 -42 -39 -34 -184 18 -340 30 -89 61 -141 105 -175 115 -87
237 -88 364 -1 109 75 196 251 225 457 18 132 -12 305 -76 428 -27 52 -105
130 -157 156 -51 26 -136 38 -184 25z"/>
<path d="M8212 4089 c-74 -37 -141 -108 -182 -193 -47 -100 -61 -167 -61 -306
0 -105 4 -139 26 -213 30 -105 55 -156 103 -217 44 -55 55 -63 112 -92 81 -40
234 -24 327 33 69 43 143 150 143 206 l0 28 -23 -35 c-16 -26 -23 -30 -25 -18
-3 13 -16 5 -55 -36 -61 -61 -120 -86 -210 -86 -78 0 -111 20 -144 89 -21 42
-27 69 -27 125 l-1 71 53 5 c35 4 60 1 71 -7 14 -9 28 -10 57 -1 280 77 376
407 172 594 -98 89 -224 110 -336 53z m268 -175 c43 -37 60 -75 60 -136 -1
-96 -55 -179 -159 -241 -74 -44 -171 -81 -183 -69 -19 19 -21 145 -4 210 19
70 66 174 93 205 55 62 140 75 193 31z"/>
<path d="M7430 4023 c1 -27 1 -64 1 -83 -1 -19 5 -51 12 -70 17 -51 16 -390
-2 -455 -20 -73 -80 -183 -110 -204 -42 -29 -56 -30 -97 -12 -58 26 -86 65
-134 187 -24 60 -59 142 -77 182 l-34 73 -28 -30 c-16 -17 -31 -41 -34 -53
-48 -203 -79 -279 -139 -344 -34 -37 -46 -44 -79 -44 -37 0 -39 2 -49 43 -6
23 -16 58 -21 77 -8 32 -20 89 -49 235 -5 28 -17 100 -26 160 -25 165 -69 281
-115 306 -17 9 -18 6 -13 -38 5 -45 4 -47 -10 -29 -9 11 -17 18 -19 15 -6 -6
-28 -135 -37 -214 -14 -117 -12 -338 3 -360 8 -11 17 -31 21 -45 4 -14 13 -49
21 -78 28 -101 86 -186 147 -217 102 -50 286 22 344 136 13 27 29 47 35 44 5
-4 21 -29 35 -57 48 -95 148 -168 230 -168 64 0 214 98 271 177 87 119 115
225 115 433 0 166 -10 228 -55 330 -13 29 -96 150 -103 150 -2 0 -4 -21 -4
-47z"/>
<path d="M10008 3955 c5 -48 -3 -59 -17 -22 l-9 22 -5 -25 c-3 -14 -13 -72
-23 -130 -22 -131 -26 -438 -6 -462 7 -9 25 -53 41 -100 16 -46 36 -98 44
-115 23 -43 105 -113 133 -113 13 0 24 -4 24 -10 0 -12 57 -13 64 -1 3 4 22
11 41 14 40 7 125 65 153 105 11 15 39 65 62 112 52 102 48 96 61 83 7 -7 7
-68 -1 -204 -12 -215 -12 -201 -4 -249 11 -65 -38 -250 -90 -342 -30 -53 -92
-116 -139 -140 -47 -24 -107 -20 -139 8 -24 22 -48 77 -49 113 0 14 -3 20 -6
14 -13 -34 -19 -5 -15 72 3 47 1 85 -2 85 -4 0 -14 -16 -22 -36 -8 -20 -23
-38 -33 -41 -44 -11 -56 -163 -21 -257 43 -113 154 -167 301 -146 145 21 265
124 351 303 68 139 83 227 83 467 -1 295 -38 503 -123 678 -14 28 -29 52 -34
52 -4 0 -8 -24 -9 -52 l0 -53 -23 50 -23 50 -11 -35 c-7 -20 -20 -43 -30 -51
-10 -9 -27 -49 -36 -90 -57 -234 -213 -416 -257 -301 -18 46 -66 243 -78 317
-50 326 -83 434 -140 464 -17 10 -18 7 -13 -34z"/>
<path d="M6823 2011 c-29 -10 -68 -30 -89 -46 -67 -51 -118 -160 -76 -160 8 0
30 25 50 55 68 102 209 145 345 105 103 -30 147 -86 147 -190 0 -120 -92 -217
-266 -280 -71 -26 -119 -32 -128 -16 -3 5 17 79 45 166 50 155 54 185 25 185
-15 0 -31 -45 -104 -290 -23 -78 -45 -89 -67 -36 -20 46 -45 48 -45 3 0 -69
57 -102 160 -91 164 17 335 124 405 253 29 53 27 171 -3 228 -59 112 -247 166
-399 114z"/>
<path d="M8795 1874 c-30 -33 -52 -99 -64 -193 -5 -40 -14 -78 -20 -84 -17
-17 -13 -45 9 -57 11 -6 20 -17 20 -25 0 -7 14 -27 31 -44 46 -47 115 -39 206
21 38 25 43 27 55 12 35 -42 50 -54 74 -60 32 -8 95 11 153 48 50 31 61 29 61
-12 0 -38 19 -48 39 -21 l17 22 48 -20 c77 -34 137 -23 234 39 21 14 24 13 45
-12 46 -55 107 -63 190 -23 63 29 122 87 114 109 -9 24 -23 20 -64 -18 -72
-63 -145 -84 -189 -52 -24 18 -17 25 37 37 45 11 59 22 59 52 0 23 -35 57 -59
57 -10 0 -58 -30 -107 -66 -128 -96 -172 -111 -234 -79 -47 25 -36 52 38 89
47 24 40 52 -11 48 -44 -3 -45 3 -12 67 37 75 51 137 35 167 -18 33 -32 30
-69 -11 -28 -32 -67 -136 -86 -232 -3 -17 -13 -34 -21 -37 -8 -3 -38 -23 -67
-45 -70 -52 -118 -68 -152 -53 -25 11 -26 15 -22 73 3 33 10 66 16 72 18 18
13 47 -8 47 -24 0 -46 -27 -46 -56 0 -16 -18 -39 -58 -72 -94 -80 -171 -92
-202 -32 -22 43 -19 61 29 157 48 97 64 160 46 192 -14 28 -36 26 -65 -5z"/>
<path d="M7273 1673 c-14 -12 -23 -35 -26 -70 l-6 -53 35 0 c31 0 37 -4 50
-37 9 -21 25 -46 37 -55 40 -32 122 -17 184 32 33 26 47 25 62 -2 35 -65 155
-63 237 5 58 47 124 86 138 81 8 -3 20 -19 27 -36 16 -40 -4 -55 -39 -27 -27
21 -42 17 -42 -11 0 -81 171 -77 268 6 22 19 44 34 48 34 4 0 18 10 30 21 28
26 48 20 68 -19 13 -25 13 -32 2 -41 -10 -8 -20 -6 -39 10 -47 36 -66 -3 -22
-46 28 -28 80 -33 149 -13 62 17 146 83 146 114 0 27 -22 24 -61 -10 -44 -37
-90 -58 -105 -47 -20 14 -55 108 -52 140 4 50 -15 49 -67 -3 -25 -25 -49 -46
-53 -46 -4 0 -32 -20 -62 -45 -68 -56 -103 -60 -119 -13 -6 17 -19 40 -28 50
-14 16 -15 24 -6 48 9 23 8 32 -3 41 -12 10 -20 7 -41 -12 -181 -167 -261
-208 -319 -164 -16 13 -17 16 -4 25 8 5 23 10 33 10 34 0 57 20 57 49 0 29
-26 61 -51 61 -17 0 -134 -74 -144 -91 -14 -22 -99 -69 -125 -69 -44 0 -63 30
-55 88 6 46 5 50 -17 55 -13 4 -27 16 -33 28 -13 30 -28 33 -52 12z"/>
<path d="M10971 1664 c-12 -15 -21 -34 -21 -43 0 -29 -98 -111 -134 -111 -16
0 -18 5 -12 39 7 45 -6 89 -30 98 -9 3 -29 -1 -44 -11 -16 -9 -35 -16 -43 -16
-9 0 -18 -4 -21 -9 -9 -14 -96 -320 -96 -336 0 -8 8 -15 18 -15 15 0 24 20 47
94 28 96 42 114 75 96 44 -23 145 6 205 59 56 49 115 54 115 11 0 -12 13 -35
29 -51 46 -46 117 -37 200 25 l33 25 37 -40 c51 -52 100 -50 193 8 48 29 58
29 58 -2 0 -35 32 -33 62 4 35 44 64 56 82 34 81 -97 97 -101 176 -48 60 40
75 43 90 15 15 -27 62 -50 104 -50 39 0 73 13 130 49 l38 25 22 -26 c29 -35
58 -48 103 -47 67 1 96 16 224 118 33 26 51 23 75 -14 15 -23 15 -28 2 -41
-13 -13 -18 -12 -42 7 -34 26 -52 15 -37 -24 13 -34 40 -47 93 -47 57 0 108
19 166 60 129 93 123 91 146 55 32 -49 14 -77 -28 -44 -45 36 -66 -8 -23 -49
49 -46 190 -15 261 57 25 25 37 45 33 55 -9 23 -20 20 -63 -19 -41 -37 -85
-57 -100 -46 -23 16 -55 100 -52 136 2 23 -2 40 -9 42 -6 2 -37 -17 -67 -44
-180 -156 -200 -163 -238 -85 -12 26 -23 65 -23 86 0 22 -5 41 -11 43 -6 2
-34 -18 -62 -44 -144 -135 -240 -181 -294 -139 -23 17 -5 36 33 36 34 0 59 24
59 54 0 25 -28 56 -52 56 -18 0 -100 -53 -150 -97 -70 -61 -146 -79 -189 -44
-20 16 -22 23 -14 47 10 28 55 48 55 25 0 -15 40 -14 41 2 4 36 -18 67 -46 67
-14 0 -99 -55 -155 -101 -88 -71 -99 -71 -150 0 -30 41 -33 43 -71 37 -36 -6
-40 -4 -49 19 -10 27 -24 32 -37 12 -15 -24 -124 -98 -168 -115 -38 -14 -47
-14 -70 -2 -25 14 -26 17 -20 75 4 33 14 68 23 78 23 26 2 45 -33 29 -20 -9
-25 -19 -25 -47 0 -19 -4 -35 -8 -35 -5 0 -31 -19 -59 -43 -28 -24 -65 -49
-82 -56 -64 -27 -115 15 -93 77 11 32 6 45 -21 55 -9 4 -20 15 -24 24 -7 18
-22 33 -35 33 -4 0 -16 -12 -27 -26z m-211 -98 c0 -25 -36 -60 -54 -53 -16 6
-16 9 4 37 22 31 50 40 50 16z"/>
<path d="M10174 1631 c-54 -33 -86 -138 -54 -176 19 -23 54 -18 80 10 13 14
30 25 37 25 8 0 29 -11 47 -25 40 -30 72 -31 129 -5 55 26 122 93 114 114 -9
23 -20 20 -63 -20 -41 -37 -93 -64 -126 -64 -31 0 -68 45 -68 82 0 39 -24 78
-48 78 -9 0 -31 -9 -48 -19z m36 -71 c0 -24 -37 -63 -50 -55 -14 9 -12 27 6
53 19 27 44 29 44 2z"/>
</g>
</svg>
