<?xml version="1.0" standalone="no"?>
<!DOCTYPE svg PUBLIC "-//W3C//DTD SVG 20010904//EN"
 "http://www.w3.org/TR/2001/REC-SVG-20010904/DTD/svg10.dtd">
<svg version="1.0" xmlns="http://www.w3.org/2000/svg"
 width="423.000000pt" height="423.000000pt" viewBox="0 0 423.000000 423.000000"
 preserveAspectRatio="xMidYMid meet">

<g transform="translate(0.000000,423.000000) scale(0.100000,-0.100000)"
fill="#000000" stroke="none">
<path d="M1890 4189 c-852 -105 -1544 -687 -1776 -1494 -64 -222 -78 -321 -78
-585 0 -264 14 -363 78 -585 196 -682 739 -1225 1421 -1421 222 -64 321 -78
585 -78 264 0 363 14 585 78 682 196 1225 739 1421 1421 64 222 78 321 78 585
0 197 -4 254 -22 350 -164 891 -829 1555 -1712 1711 -132 24 -455 34 -580 18z
m-1245 -2284 c54 -250 102 -452 105 -448 4 5 46 190 94 413 48 223 92 424 98
448 l10 42 78 0 77 0 7 -332 c3 -183 9 -442 12 -575 l7 -243 -65 0 -65 0 -6
212 c-4 116 -7 299 -8 407 0 108 -4 187 -8 176 -4 -11 -48 -194 -97 -407 l-89
-388 -46 0 -47 0 -30 128 c-16 70 -58 251 -93 402 l-64 275 -6 -190 c-4 -104
-7 -286 -8 -402 l-1 -213 -66 0 -67 0 7 478 c3 262 9 521 13 575 l6 97 76 0
77 0 99 -455z m1725 -120 l0 -575 -75 0 c-68 0 -75 2 -75 20 0 25 -5 25 -41
-1 -63 -45 -159 -37 -220 18 -64 58 -74 107 -74 368 0 243 10 304 62 366 62
74 178 79 256 11 16 -14 17 -5 17 176 l0 192 75 0 75 0 0 -575z m301 565 c18
-10 19 -27 19 -575 l0 -565 -75 0 -75 0 0 575 0 575 56 0 c30 0 64 -5 75 -10z
m-1036 -329 c46 -21 78 -53 96 -96 9 -21 15 -129 19 -345 4 -173 11 -328 15
-343 l7 -28 -73 3 -74 3 -8 54 -9 54 -21 -38 c-35 -61 -68 -80 -140 -80 -69 0
-98 15 -138 74 -18 26 -25 51 -27 106 -7 139 52 218 223 296 l95 44 0 63 c0
112 -41 160 -113 133 -33 -13 -46 -38 -54 -101 l-6 -50 -61 0 c-34 0 -67 4
-75 9 -31 20 25 185 73 216 72 47 199 59 271 26z m1359 -269 c45 -250 64 -339
65 -305 1 15 78 458 92 531 l10 52 75 0 c43 0 74 -4 74 -10 0 -6 -45 -209
-100 -451 -64 -283 -107 -454 -121 -475 -26 -43 -105 -80 -186 -89 l-63 -6 0
59 0 59 57 6 c64 7 86 23 85 64 0 22 -86 395 -187 821 -5 21 -3 22 72 22 l78
0 49 -278z"/>
<path d="M2071 1901 c-11 -11 -24 -37 -28 -58 -10 -48 -11 -396 0 -444 15 -73
77 -100 147 -64 l30 16 0 268 0 269 -34 16 c-46 22 -92 20 -115 -3z"/>
<path d="M1539 1592 c-84 -54 -120 -120 -105 -194 14 -73 71 -89 131 -37 l35
31 0 114 c0 63 -4 114 -8 114 -4 0 -28 -13 -53 -28z"/>
</g>
</svg>
