<?xml version="1.0" standalone="no"?>
<!DOCTYPE svg PUBLIC "-//W3C//DTD SVG 20010904//EN"
 "http://www.w3.org/TR/2001/REC-SVG-20010904/DTD/svg10.dtd">
<svg version="1.0" xmlns="http://www.w3.org/2000/svg"
 width="360.000000pt" height="360.000000pt" viewBox="0 0 360.000000 360.000000"
 preserveAspectRatio="xMidYMid meet">

<g transform="translate(0.000000,360.000000) scale(0.100000,-0.100000)"
fill="#000000" stroke="none">
<path d="M1663 2955 c-57 -17 -104 -48 -148 -96 -64 -71 -79 -117 -85 -259
l-5 -125 -97 -3 -98 -3 0 -919 0 -920 724 0 723 0 -4 68 c-6 105 -73 1686 -73
1731 l0 41 -159 0 -159 0 -4 123 c-3 104 -8 130 -29 177 -36 77 -77 121 -151
160 l-63 34 -165 2 c-110 1 -179 -2 -207 -11z m63 -75 c-25 -23 -58 -68 -73
-99 -25 -51 -28 -68 -32 -184 l-3 -128 -72 3 -71 3 1 115 c0 94 4 123 20 160
43 94 123 157 217 169 29 4 53 6 55 5 2 -1 -17 -21 -42 -44z m348 15 c51 -24
105 -81 132 -139 21 -44 24 -66 24 -168 l0 -118 -69 0 -69 0 -4 124 c-4 115
-6 128 -36 189 -19 38 -50 81 -72 100 -22 19 -40 36 -40 39 0 9 99 -11 134
-27z m-191 -1 c45 -23 105 -82 130 -129 18 -33 22 -61 25 -168 l4 -127 -188 2
-189 3 -3 84 c-5 157 35 254 132 319 26 17 50 32 53 32 2 0 18 -7 36 -16z
m-243 -584 c10 0 20 8 23 18 4 16 4 16 12 -1 10 -23 -12 -49 -39 -45 -15 2
-21 11 -23 33 -1 17 1 22 3 13 3 -10 14 -18 24 -18z m646 -16 c-11 -29 -66 -9
-66 25 0 11 4 11 19 -3 19 -17 20 -17 33 3 11 18 14 19 16 6 2 -9 1 -23 -2
-31z"/>
<path d="M1027 2363 c-3 -59 -27 -452 -52 -873 -25 -420 -45 -780 -43 -798 l3
-33 56 40 56 40 6 143 c11 236 41 1567 36 1572 -2 2 -16 7 -30 11 l-26 6 -6
-108z"/>
<path d="M1152 2462 c-9 -7 -17 -180 -32 -753 -11 -409 -20 -795 -21 -858 l-1
-113 35 -36 c20 -20 39 -34 41 -31 9 9 8 1793 -1 1796 -4 2 -14 -1 -21 -5z"/>
<path d="M1026 670 c-21 -16 -41 -32 -44 -35 -3 -3 32 -5 78 -5 l84 0 -34 35
c-19 19 -36 35 -39 35 -4 0 -23 -14 -45 -30z"/>
</g>
</svg>
