<?xml version="1.0" standalone="no"?>
<!DOCTYPE svg PUBLIC "-//W3C//DTD SVG 20010904//EN"
 "http://www.w3.org/TR/2001/REC-SVG-20010904/DTD/svg10.dtd">
<svg version="1.0" xmlns="http://www.w3.org/2000/svg"
 width="860.000000pt" height="674.000000pt" viewBox="0 0 860.000000 674.000000"
 preserveAspectRatio="xMidYMid meet">

<g transform="translate(0.000000,674.000000) scale(0.100000,-0.100000)"
fill="#000000" stroke="none">
<path d="M4135 6319 c-602 -29 -1208 -261 -1682 -642 -406 -327 -728 -767
-918 -1256 -245 -632 -254 -1381 -24 -2037 147 -419 374 -779 699 -1105 457
-460 1011 -738 1680 -842 201 -31 624 -30 830 2 681 105 1246 396 1713 881
772 801 1026 1959 663 3015 -345 1005 -1224 1757 -2271 1944 -211 37 -457 52
-690 40z m654 -1201 c30 -10 75 -31 100 -48 25 -16 382 -366 792 -777 814
-816 788 -786 811 -927 15 -89 -1 -179 -48 -276 -35 -72 -66 -105 -758 -798
-396 -398 -747 -743 -779 -767 -94 -71 -152 -89 -287 -90 -109 0 -118 2 -181
32 -165 81 -260 265 -230 446 25 150 35 163 439 570 l366 367 -1260 0 c-1356
0 -1313 -2 -1416 51 -54 27 -130 99 -166 157 -50 79 -65 141 -60 251 3 85 8
106 36 163 44 90 118 162 211 207 l76 36 1294 3 1295 2 -365 368 c-348 349
-367 371 -400 442 -32 72 -34 80 -34 191 0 113 1 117 37 191 45 90 103 148
193 190 109 51 219 56 334 16z"/>
</g>
</svg>
